<svg id="Layer_1" data-name="Layer 1" xmlns="http://www.w3.org/2000/svg" viewBox="0 0 626.84 548.86">
  <path d="M738.45,693.82q.75,6.46,1.52,12.91c113.23,0,226.47.5,339.69-.34,29.1-.21,41.52-22.12,48.1-47,13.55-51.15,29.21-102,38.6-153.94,9.63-53.19,24.08-99,85-111.62,5.6-1.17,10.9-3.79,16.34-5.74L1260.48,370c-47.51,57.39-96.45-8.23-145.67,10.17,5.46,11.11,13.57,10.64,20.83,10.36,33-1.23,43,11.8,33.23,44.54-16.46,55-30.27,110.84-44.57,166.49-7.27,28.27-23.66,39.43-53.16,35.87-97.67-11.81-195.47-22.62-293.27-33.32-33.22-3.64-56.3-17.16-65.62-52.06-8.56-32-21-63.07-31.8-94.5C660,398.21,660,398.27,721.38,387.84c1.89-.32,3.2-4.1,4.69-6.33-72.84-13.18-86.79,2.7-63.17,71.79C675.11,489,688.25,524.44,699,560.59c11,37,36.23,53.42,72.71,57.47,112.41,12.51,224.77,25.38,337.85,38.18-2.44,29.2-22.85,37.51-49.9,37.52q-68.21,0-136.4.06Zm48.9-319.46-13,14.23c21.22,20.86,41.3,43.06,63.93,62.24,29.55,25.05,51.9,77.05,86.31,72.16,31.8-4.51,59.31-47.57,86.12-76.09,19.08-20.3,47.31-34.37,56.84-72.71-51.46,38.66-83.47,87.47-138.36,124.51v-253l-13.72-.2V491.92l-20.11,11.76Zm63.44,382c-.65-16.15-9.08-25.87-25.13-26-17.37-.09-29.74,9-28.9,27.31.8,17.6,13.25,27.51,30.41,26.46C842.74,783.26,850.72,772.32,850.79,756.41Zm195.12-.24c-1.77-14.4-10-24.43-25.62-25.56-16.25-1.16-26.14,8.43-27.56,23.9-1.66,18.2,8.61,29.11,26.71,29C1035.44,783.48,1043.13,772.22,1045.91,756.17Z" transform="translate(-647.35 -240.43)" style="fill: #050505;stroke: #000;stroke-miterlimit: 10;stroke-width: 10px"/>
</svg>
